<?xml version="1.0" encoding="utf-8"?>
<!-- Generator: Adobe Illustrator 25.2.0, SVG Export Plug-In . SVG Version: 6.00 Build 0)  -->
<svg version="1.1" id="Слой_1" xmlns="http://www.w3.org/2000/svg" xmlns:xlink="http://www.w3.org/1999/xlink" x="0px" y="0px"
	 viewBox="0 0 309.1 225.7" style="enable-background:new 0 0 309.1 225.7;" xml:space="preserve">
<polygon style="fill:#B24258;" points="279.7,160 155.2,220 30.7,160 30.7,0 279.7,0 "/>
<path style="fill:#241E49;stroke:#A17EB9;stroke-miterlimit:10;" d="M287.3,68.6l-14.8-1.3l1.8,12.6l-1.5-0.1v-0.1l-6.3-0.5
	l-5.9-0.5v0.1l-11.4-0.9l-1.8-15l-9.2,4.7l-0.3-2.9l-7.1-0.4l0,0h-0.9l-18.2-1h-1l-7.1-0.4l0.5,12.5v-0.3l-34-0.9l0,0H159h-1.7
	L157,59.4l-5.6,3.2l-17.5,8.7v-9L112.6,63l-0.6,12.5l-14.9,1v-0.1l-5.4,0.5l-6.3,0.4v0.1l-11.9,1.1v-0.1L68.2,79l-6.6,0.6v0.1
	L49.7,81l1-12.7l-27,3.3l-11.6-5.1l1.9,14.1l-7.2,47.1l-0.2,0.4l6.5,10.9c0,0,87.7-10.6,141.9-10.6S297.2,139,297.2,139l6.6-10.9
	v-0.6l-7.8-50l3.3-14.3L287.3,68.6z"/>
<linearGradient id="SVGID_1_" gradientUnits="userSpaceOnUse" x1="27.8689" y1="217.91" x2="27.8689" y2="129.57" gradientTransform="matrix(1 0 0 -1 0 266)">
	<stop  offset="0.23" style="stop-color:#7821A2"/>
	<stop  offset="0.86" style="stop-color:#266CC3"/>
</linearGradient>
<path style="fill:url(#SVGID_1_);" d="M39.9,96.4l-8.3,5.7l-0.2,1.8L30,117.3l-6.8,0.9L27,85.8l6.4-0.8L32.9,90l8.1-5.4l0.7-8.1
	l-21.3,2.8l-1,7.5l-0.5,4.1l-4.8,37.3l23.3-3.3c0.7-7.8,1.4-15.4,2-22.7L39.9,96.4z"/>
<linearGradient id="SVGID_2_" gradientUnits="userSpaceOnUse" x1="52.2039" y1="199.1" x2="52.2039" y2="135.44" gradientTransform="matrix(1 0 0 -1 0 266)">
	<stop  offset="0.23" style="stop-color:#7821A2"/>
	<stop  offset="0.86" style="stop-color:#266CC3"/>
</linearGradient>
<path style="fill:url(#SVGID_2_);" d="M64.8,87.3l-11.6,1.3l-2.6,2.5l0.2-2.2l-7.6,0.8l-3.5,34.7l8.2-1c0.8-9.2,1.6-18.1,2.3-26.7
	l6.4-0.8l-0.4,5.3l8.1-5.5v-0.7L64.8,87.3z"/>
<linearGradient id="SVGID_3_" gradientUnits="userSpaceOnUse" x1="76.8489" y1="201.05" x2="76.8489" y2="138.65" gradientTransform="matrix(1 0 0 -1 0 266)">
	<stop  offset="0.23" style="stop-color:#7821A2"/>
	<stop  offset="0.86" style="stop-color:#266CC3"/>
</linearGradient>
<path style="fill:url(#SVGID_3_);" d="M80.2,109.2l-0.1,2.2l-6.6,0.7l0.2-2.5l14.7-10.1c0.2-4.9,0.3-9.7,0.5-14.4l-21.3,2.1
	c-0.8,11-1.7,22.5-2.6,34.4l22.7-2.3c0.2-5.2,0.4-10.4,0.5-15.5L80.2,109.2z M74.6,94.1l6.4-0.6l-0.1,2l-6.7,4.5L74.6,94.1z"/>
<linearGradient id="SVGID_4_" gradientUnits="userSpaceOnUse" x1="101.2589" y1="202.45" x2="101.2589" y2="141.31" gradientTransform="matrix(1 0 0 -1 0 266)">
	<stop  offset="0.23" style="stop-color:#7821A2"/>
	<stop  offset="0.86" style="stop-color:#266CC3"/>
</linearGradient>
<path style="fill:url(#SVGID_4_);" d="M105.2,83.8V86l-2.3-2l-11.4,0.8c-0.5,10.9-1.1,22.3-1.7,34.2l14.8-10.2l-0.2,9l7.9-0.6
	c0.1-11.8,0.3-23.1,0.4-34L105.2,83.8z M98.2,103.7L98.7,92l6.3-0.5c-0.1,2.6-0.1,5.2-0.2,7.8L98.2,103.7z"/>
<linearGradient id="SVGID_5_" gradientUnits="userSpaceOnUse" x1="127.4139" y1="223.1" x2="127.4139" y2="141.45" gradientTransform="matrix(1 0 0 -1 0 266)">
	<stop  offset="0.23" style="stop-color:#7821A2"/>
	<stop  offset="0.86" style="stop-color:#266CC3"/>
</linearGradient>
<polygon style="fill:url(#SVGID_5_);" points="139.8,107.3 139.7,105.7 139.7,100.2 132,105.2 132,106.1 132,107.7 129.3,107.8 
	125.5,108 125.7,93.2 128.7,91.4 130.7,90.1 130.7,81.2 128.8,82.4 125.9,84.3 125.9,81.4 126,76.5 126.1,69.1 118.8,69.4 
	118.3,89.1 117.3,89.7 115.3,91 115,100.2 117,98.9 118,98.2 117.5,116.8 139.9,115.8 139.8,110.2 "/>
<linearGradient id="SVGID_6_" gradientUnits="userSpaceOnUse" x1="145.8639" y1="202.83" x2="145.8639" y2="144.66" gradientTransform="matrix(1 0 0 -1 0 266)">
	<stop  offset="0.23" style="stop-color:#7821A2"/>
	<stop  offset="0.86" style="stop-color:#266CC3"/>
</linearGradient>
<polygon style="fill:url(#SVGID_6_);" points="142.2,82 141.9,115.9 149.8,115.7 149.6,81.9 "/>
<linearGradient id="SVGID_7_" gradientUnits="userSpaceOnUse" x1="145.9339" y1="198.91" x2="145.9339" y2="186.36" gradientTransform="matrix(1 0 0 -1 0 266)">
	<stop  offset="0.23" style="stop-color:#7821A2"/>
	<stop  offset="0.86" style="stop-color:#266CC3"/>
</linearGradient>
<polygon style="fill:url(#SVGID_7_);" points="149.6,71.1 142.3,75.5 142.3,78.5 149.6,78.3 "/>
<linearGradient id="SVGID_8_" gradientUnits="userSpaceOnUse" x1="163.0339" y1="202.89" x2="163.0339" y2="144.79" gradientTransform="matrix(1 0 0 -1 0 266)">
	<stop  offset="0.23" style="stop-color:#7821A2"/>
	<stop  offset="0.86" style="stop-color:#266CC3"/>
</linearGradient>
<polygon style="fill:url(#SVGID_8_);" points="166.2,104 163,105.9 159.8,103.9 159.8,81.8 152.3,81.8 152.1,99.2 152,107.2 
	152,108.7 155.2,110.8 159.8,113.6 163.1,115.7 166.3,113.7 170.9,110.9 174.1,108.8 174,107.3 173.8,99.3 173.3,81.9 165.9,81.9 
	"/>
<linearGradient id="SVGID_9_" gradientUnits="userSpaceOnUse" x1="187.3889" y1="203.02" x2="187.3889" y2="143.81" gradientTransform="matrix(1 0 0 -1 0 266)">
	<stop  offset="0.23" style="stop-color:#7821A2"/>
	<stop  offset="0.86" style="stop-color:#266CC3"/>
</linearGradient>
<path style="fill:url(#SVGID_9_);" d="M176.4,115.9l22.4,0.7c-0.3-5.2-0.5-10.4-0.8-15.4l-7.5,4.5l0.1,2.2l-6.5-0.2l-0.1-2.5
	l13.7-8.2c-0.2-4.9-0.5-9.6-0.7-14.3L176,82C176.1,92.8,176.2,104.1,176.4,115.9z M183.6,90l6.3,0.2l0.1,2l-6.2,3.7L183.6,90z"/>
<linearGradient id="SVGID_10_" gradientUnits="userSpaceOnUse" x1="223.4089" y1="222.97" x2="223.4089" y2="139.44" gradientTransform="matrix(1 0 0 -1 0 266)">
	<stop  offset="0.23" style="stop-color:#7821A2"/>
	<stop  offset="0.86" style="stop-color:#266CC3"/>
</linearGradient>
<polygon style="fill:url(#SVGID_10_);" points="224.3,70.6 221.5,74 218.2,70.3 210.9,69.9 211.3,77.2 211.7,84.5 213.4,117.3 
	221.3,117.8 218.9,81.7 222.3,85.6 225.1,82 228,118.2 235.9,118.7 231.5,71.1 "/>
<linearGradient id="SVGID_11_" gradientUnits="userSpaceOnUse" x1="238.5439" y1="195.57" x2="238.5439" y2="183.09" gradientTransform="matrix(1 0 0 -1 0 266)">
	<stop  offset="0.23" style="stop-color:#7821A2"/>
	<stop  offset="0.86" style="stop-color:#266CC3"/>
</linearGradient>
<polygon style="fill:url(#SVGID_11_);" points="241.7,74.4 234.7,78.2 235,81.2 242.4,81.7 "/>
<linearGradient id="SVGID_12_" gradientUnits="userSpaceOnUse" x1="240.7189" y1="200.35" x2="240.7189" y2="140.86" gradientTransform="matrix(1 0 0 -1 0 266)">
	<stop  offset="0.23" style="stop-color:#7821A2"/>
	<stop  offset="0.86" style="stop-color:#266CC3"/>
</linearGradient>
<polygon style="fill:url(#SVGID_12_);" points="238.2,118.9 246.2,119.5 242.7,85.3 235.3,84.8 "/>
<linearGradient id="SVGID_13_" gradientUnits="userSpaceOnUse" x1="258.2239" y1="200.46" x2="258.2239" y2="138.54" gradientTransform="matrix(1 0 0 -1 0 266)">
	<stop  offset="0.23" style="stop-color:#7821A2"/>
	<stop  offset="0.86" style="stop-color:#266CC3"/>
</linearGradient>
<path style="fill:url(#SVGID_13_);" d="M257.6,86.4l-2.5-0.2l-2.1,2l-0.2-2.2l-7.5-0.6l3.2,34.2l8.1,0.7l-0.3-2.4l-0.7-6.2l-0.8-7.3
	l-1.1-10.6l6.4,0.5l1.3,10.7l0.9,7.4l1,8.6l8,0.7l-4.7-34.5L257.6,86.4z"/>
<linearGradient id="SVGID_14_" gradientUnits="userSpaceOnUse" x1="282.8889" y1="217.99" x2="282.8889" y2="133.9" gradientTransform="matrix(1 0 0 -1 0 266)">
	<stop  offset="0.23" style="stop-color:#7821A2"/>
	<stop  offset="0.86" style="stop-color:#266CC3"/>
</linearGradient>
<path style="fill:url(#SVGID_14_);" d="M281.1,75l2.1,13.7l-14-1.3c1.4,11,2.8,22.5,4.3,34.5l12.4,1.2l2.2-2.2l0.4,2.5l8.2,0.8
	c-2.9-17.2-5.5-33.2-8.1-48.5L281.1,75z M287.1,114.6l-6.7-0.7c-0.9-6.2-1.7-12.1-2.5-18l6.5,0.6L287.1,114.6z"/>
</svg>
